<svg width="273" height="53" viewBox="0 0 273 53" fill="none" xmlns="http://www.w3.org/2000/svg">
<g filter="url(#filter0_d_1332_2062)">
<path d="M26.216 0.199997C30.3547 0.199997 33.96 0.882664 37.032 2.248C40.104 3.61333 42.472 5.576 44.136 8.136C45.8 10.696 46.632 13.6827 46.632 17.096C46.632 20.5093 45.8 23.496 44.136 26.056C42.472 28.616 40.104 30.5787 37.032 31.944C33.96 33.3093 30.3547 33.992 26.216 33.992H19.752V45H4.648V0.199997H26.216ZM25.256 22.344C27.304 22.344 28.84 21.896 29.864 21C30.888 20.0613 31.4 18.76 31.4 17.096C31.4 15.432 30.888 14.152 29.864 13.256C28.84 12.3173 27.304 11.848 25.256 11.848H19.752V22.344H25.256ZM66.6895 11.592V19.272H85.3775V30.664H66.6895V45H51.5855V0.199997H88.0015V11.592H66.6895ZM114.341 0.199997C118.48 0.199997 122.085 0.882664 125.157 2.248C128.229 3.61333 130.597 5.576 132.261 8.136C133.925 10.696 134.757 13.6827 134.757 17.096C134.757 20.5093 133.925 23.496 132.261 26.056C130.597 28.616 128.229 30.5787 125.157 31.944C122.085 33.3093 118.48 33.992 114.341 33.992H107.877V45H92.773V0.199997H114.341ZM113.381 22.344C115.429 22.344 116.965 21.896 117.989 21C119.013 20.0613 119.525 18.76 119.525 17.096C119.525 15.432 119.013 14.152 117.989 13.256C116.965 12.3173 115.429 11.848 113.381 11.848H107.877V22.344H113.381ZM177.763 30.152L174.371 33.928V45H159.523V0.199997H174.371V16.456L189.091 0.199997H205.539L187.619 19.912L206.435 45H188.963L177.763 30.152ZM208.461 0.199997H223.565V45H208.461V0.199997ZM240.564 11.912H227.444V0.199997H268.788V11.912H255.668V45H240.564V11.912Z" fill="white"/>
</g>
<defs>
<filter id="filter0_d_1332_2062" x="0.64801" y="0.200195" width="272.139" height="52.7998" filterUnits="userSpaceOnUse" color-interpolation-filters="sRGB">
<feFlood flood-opacity="0" result="BackgroundImageFix"/>
<feColorMatrix in="SourceAlpha" type="matrix" values="0 0 0 0 0 0 0 0 0 0 0 0 0 0 0 0 0 0 127 0" result="hardAlpha"/>
<feOffset dy="4"/>
<feGaussianBlur stdDeviation="2"/>
<feComposite in2="hardAlpha" operator="out"/>
<feColorMatrix type="matrix" values="0 0 0 0 0 0 0 0 0 0 0 0 0 0 0 0 0 0 0.25 0"/>
<feBlend mode="normal" in2="BackgroundImageFix" result="effect1_dropShadow_1332_2062"/>
<feBlend mode="normal" in="SourceGraphic" in2="effect1_dropShadow_1332_2062" result="shape"/>
</filter>
</defs>
</svg>
